<svg width="536" height="36" viewBox="0 0 536 36" fill="none" xmlns="http://www.w3.org/2000/svg">
<path d="M287.825 3.9V5.33H285.264V13H283.769V5.33H281.195V3.9H287.825ZM291.78 13.169C290.826 13.169 290.016 12.8397 289.349 12.181C288.681 11.5223 288.348 10.712 288.348 9.75C288.348 8.788 288.681 7.97767 289.349 7.319C290.016 6.66033 290.826 6.331 291.78 6.331C292.742 6.331 293.552 6.66033 294.211 7.319C294.878 7.97767 295.212 8.788 295.212 9.75C295.212 10.712 294.878 11.5223 294.211 12.181C293.552 12.8397 292.742 13.169 291.78 13.169ZM290.337 11.219C290.727 11.609 291.208 11.804 291.78 11.804C292.352 11.804 292.833 11.609 293.223 11.219C293.613 10.829 293.808 10.3393 293.808 9.75C293.808 9.16067 293.613 8.671 293.223 8.281C292.833 7.891 292.352 7.696 291.78 7.696C291.208 7.696 290.727 7.891 290.337 8.281C289.947 8.671 289.752 9.16067 289.752 9.75C289.752 10.3393 289.947 10.829 290.337 11.219ZM303.267 13H301.59L298.925 9.997V13H297.521V3.9H298.925V9.373L301.447 6.5H303.163L300.303 9.685L303.267 13ZM309.879 6.5H311.283V13H309.879V12.064C309.35 12.8007 308.592 13.169 307.604 13.169C306.711 13.169 305.949 12.8397 305.316 12.181C304.683 11.5137 304.367 10.7033 304.367 9.75C304.367 8.788 304.683 7.97767 305.316 7.319C305.949 6.66033 306.711 6.331 307.604 6.331C308.592 6.331 309.35 6.695 309.879 7.423V6.5ZM306.356 11.245C306.746 11.635 307.236 11.83 307.825 11.83C308.414 11.83 308.904 11.635 309.294 11.245C309.684 10.8463 309.879 10.348 309.879 9.75C309.879 9.152 309.684 8.658 309.294 8.268C308.904 7.86933 308.414 7.67 307.825 7.67C307.236 7.67 306.746 7.86933 306.356 8.268C305.966 8.658 305.771 9.152 305.771 9.75C305.771 10.348 305.966 10.8463 306.356 11.245ZM315.363 7.592C315.719 6.786 316.386 6.383 317.365 6.383V7.904C316.828 7.86933 316.36 7.99933 315.961 8.294C315.563 8.58 315.363 9.05667 315.363 9.724V13H313.959V6.5H315.363V7.592ZM323.837 13.169C322.467 13.169 321.332 12.7183 320.431 11.817C319.529 10.907 319.079 9.78467 319.079 8.45C319.079 7.11533 319.529 5.99733 320.431 5.096C321.332 4.186 322.467 3.731 323.837 3.731C324.66 3.731 325.418 3.926 326.112 4.316C326.814 4.706 327.36 5.23467 327.75 5.902L326.45 6.656C326.207 6.20533 325.852 5.85 325.384 5.59C324.924 5.32133 324.409 5.187 323.837 5.187C322.866 5.187 322.077 5.49467 321.471 6.11C320.873 6.72533 320.574 7.50533 320.574 8.45C320.574 9.39467 320.873 10.1747 321.471 10.79C322.077 11.4053 322.866 11.713 323.837 11.713C324.409 11.713 324.929 11.583 325.397 11.323C325.865 11.0543 326.216 10.6947 326.45 10.244L327.75 10.985C327.368 11.6523 326.827 12.1853 326.125 12.584C325.431 12.974 324.669 13.169 323.837 13.169ZM332.996 13.169C332.043 13.169 331.232 12.8397 330.565 12.181C329.898 11.5223 329.564 10.712 329.564 9.75C329.564 8.788 329.898 7.97767 330.565 7.319C331.232 6.66033 332.043 6.331 332.996 6.331C333.958 6.331 334.768 6.66033 335.427 7.319C336.094 7.97767 336.428 8.788 336.428 9.75C336.428 10.712 336.094 11.5223 335.427 12.181C334.768 12.8397 333.958 13.169 332.996 13.169ZM331.553 11.219C331.943 11.609 332.424 11.804 332.996 11.804C333.568 11.804 334.049 11.609 334.439 11.219C334.829 10.829 335.024 10.3393 335.024 9.75C335.024 9.16067 334.829 8.671 334.439 8.281C334.049 7.891 333.568 7.696 332.996 7.696C332.424 7.696 331.943 7.891 331.553 8.281C331.163 8.671 330.968 9.16067 330.968 9.75C330.968 10.3393 331.163 10.829 331.553 11.219ZM345.836 6.331C346.572 6.331 347.166 6.56933 347.617 7.046C348.067 7.52267 348.293 8.164 348.293 8.97V13H346.889V9.061C346.889 8.61033 346.776 8.26367 346.551 8.021C346.325 7.76967 346.018 7.644 345.628 7.644C345.194 7.644 344.848 7.787 344.588 8.073C344.336 8.359 344.211 8.788 344.211 9.36V13H342.807V9.061C342.807 8.61033 342.698 8.26367 342.482 8.021C342.274 7.76967 341.975 7.644 341.585 7.644C341.16 7.644 340.813 7.79133 340.545 8.086C340.276 8.372 340.142 8.79667 340.142 9.36V13H338.738V6.5H340.142V7.28C340.558 6.64733 341.177 6.331 342.001 6.331C342.833 6.331 343.448 6.67333 343.847 7.358C344.28 6.67333 344.943 6.331 345.836 6.331ZM354.514 6.331C355.407 6.331 356.17 6.66467 356.802 7.332C357.435 7.99067 357.751 8.79667 357.751 9.75C357.751 10.712 357.435 11.5223 356.802 12.181C356.17 12.8397 355.407 13.169 354.514 13.169C353.526 13.169 352.768 12.805 352.239 12.077V15.6H350.835V6.5H352.239V7.436C352.768 6.69933 353.526 6.331 354.514 6.331ZM352.824 11.245C353.214 11.635 353.704 11.83 354.293 11.83C354.883 11.83 355.372 11.635 355.762 11.245C356.152 10.8463 356.347 10.348 356.347 9.75C356.347 9.152 356.152 8.658 355.762 8.268C355.372 7.86933 354.883 7.67 354.293 7.67C353.704 7.67 353.214 7.86933 352.824 8.268C352.434 8.658 352.239 9.152 352.239 9.75C352.239 10.348 352.434 10.8463 352.824 11.245ZM365.212 6.5H366.616V13H365.212V12.064C364.683 12.8007 363.925 13.169 362.937 13.169C362.044 13.169 361.281 12.8397 360.649 12.181C360.016 11.5137 359.7 10.7033 359.7 9.75C359.7 8.788 360.016 7.97767 360.649 7.319C361.281 6.66033 362.044 6.331 362.937 6.331C363.925 6.331 364.683 6.695 365.212 7.423V6.5ZM361.689 11.245C362.079 11.635 362.568 11.83 363.158 11.83C363.747 11.83 364.237 11.635 364.627 11.245C365.017 10.8463 365.212 10.348 365.212 9.75C365.212 9.152 365.017 8.658 364.627 8.268C364.237 7.86933 363.747 7.67 363.158 7.67C362.568 7.67 362.079 7.86933 361.689 8.268C361.299 8.658 361.104 9.152 361.104 9.75C361.104 10.348 361.299 10.8463 361.689 11.245ZM372.711 6.331C373.457 6.331 374.059 6.56933 374.518 7.046C374.978 7.52267 375.207 8.177 375.207 9.009V13H373.803V9.152C373.803 8.66667 373.673 8.294 373.413 8.034C373.153 7.774 372.798 7.644 372.347 7.644C371.853 7.644 371.455 7.8 371.151 8.112C370.848 8.41533 370.696 8.88333 370.696 9.516V13H369.292V6.5H370.696V7.332C371.121 6.66467 371.793 6.331 372.711 6.331ZM382.013 6.5H383.508L381.012 13.208C380.388 14.8893 379.331 15.6867 377.84 15.6V14.287C378.282 14.313 378.637 14.2177 378.906 14.001C379.175 13.793 379.396 13.4637 379.569 13.013L379.634 12.883L376.878 6.5H378.412L380.349 11.219L382.013 6.5ZM389.807 9.724V8.372H394.617V9.724H389.807ZM407.458 6.5V13H406.054V7.826H403.077V13H401.673V6.5H407.458ZM413.806 6.331C414.699 6.331 415.461 6.66467 416.094 7.332C416.727 7.99067 417.043 8.79667 417.043 9.75C417.043 10.712 416.727 11.5223 416.094 12.181C415.461 12.8397 414.699 13.169 413.806 13.169C412.818 13.169 412.06 12.805 411.531 12.077V15.6H410.127V6.5H411.531V7.436C412.06 6.69933 412.818 6.331 413.806 6.331ZM412.116 11.245C412.506 11.635 412.996 11.83 413.585 11.83C414.174 11.83 414.664 11.635 415.054 11.245C415.444 10.8463 415.639 10.348 415.639 9.75C415.639 9.152 415.444 8.658 415.054 8.268C414.664 7.86933 414.174 7.67 413.585 7.67C412.996 7.67 412.506 7.86933 412.116 8.268C411.726 8.658 411.531 9.152 411.531 9.75C411.531 10.348 411.726 10.8463 412.116 11.245ZM422.423 13.169C421.47 13.169 420.66 12.8397 419.992 12.181C419.325 11.5223 418.991 10.712 418.991 9.75C418.991 8.788 419.325 7.97767 419.992 7.319C420.66 6.66033 421.47 6.331 422.423 6.331C423.385 6.331 424.196 6.66033 424.854 7.319C425.522 7.97767 425.855 8.788 425.855 9.75C425.855 10.712 425.522 11.5223 424.854 12.181C424.196 12.8397 423.385 13.169 422.423 13.169ZM420.98 11.219C421.37 11.609 421.851 11.804 422.423 11.804C422.995 11.804 423.476 11.609 423.866 11.219C424.256 10.829 424.451 10.3393 424.451 9.75C424.451 9.16067 424.256 8.671 423.866 8.281C423.476 7.891 422.995 7.696 422.423 7.696C421.851 7.696 421.37 7.891 420.98 8.281C420.59 8.671 420.395 9.16067 420.395 9.75C420.395 10.3393 420.59 10.829 420.98 11.219ZM432.871 6.5H433.95V13H432.572V8.866L429.244 13H428.165V6.5H429.543V10.621L432.871 6.5ZM440.272 9.672C440.965 9.984 441.312 10.4997 441.312 11.219C441.312 11.7737 441.087 12.2373 440.636 12.61C440.185 12.9827 439.557 13.169 438.751 13.169C437.442 13.169 436.558 12.649 436.099 11.609L437.243 10.933C437.477 11.583 437.984 11.908 438.764 11.908C439.128 11.908 439.414 11.8343 439.622 11.687C439.83 11.531 439.934 11.3273 439.934 11.076C439.934 10.8507 439.852 10.673 439.687 10.543C439.522 10.4043 439.293 10.335 438.998 10.335H438.075V9.1H438.764C439.05 9.1 439.271 9.035 439.427 8.905C439.592 8.76633 439.674 8.58 439.674 8.346C439.674 8.12067 439.583 7.93867 439.401 7.8C439.219 7.65267 438.976 7.579 438.673 7.579C438.023 7.579 437.572 7.865 437.321 8.437L436.177 7.787C436.662 6.81633 437.486 6.331 438.647 6.331C439.375 6.331 439.951 6.51733 440.376 6.89C440.809 7.254 441.026 7.70033 441.026 8.229C441.026 8.879 440.775 9.36 440.272 9.672ZM447.997 9.659C448.638 9.95367 448.959 10.452 448.959 11.154C448.959 11.7 448.773 12.1463 448.4 12.493C448.036 12.831 447.512 13 446.827 13H443.499V6.5H446.567C447.234 6.5 447.75 6.669 448.114 7.007C448.487 7.33633 448.673 7.76533 448.673 8.294C448.673 8.90933 448.448 9.36433 447.997 9.659ZM446.463 7.696H444.838V9.139H446.463C447.035 9.139 447.321 8.89633 447.321 8.411C447.321 7.93433 447.035 7.696 446.463 7.696ZM446.697 11.778C447.286 11.778 447.581 11.5223 447.581 11.011C447.581 10.7857 447.503 10.6123 447.347 10.491C447.191 10.361 446.974 10.296 446.697 10.296H444.838V11.778H446.697ZM454.208 13.169C453.255 13.169 452.445 12.8397 451.777 12.181C451.11 11.5223 450.776 10.712 450.776 9.75C450.776 8.788 451.11 7.97767 451.777 7.319C452.445 6.66033 453.255 6.331 454.208 6.331C455.17 6.331 455.981 6.66033 456.639 7.319C457.307 7.97767 457.64 8.788 457.64 9.75C457.64 10.712 457.307 11.5223 456.639 12.181C455.981 12.8397 455.17 13.169 454.208 13.169ZM452.765 11.219C453.155 11.609 453.636 11.804 454.208 11.804C454.78 11.804 455.261 11.609 455.651 11.219C456.041 10.829 456.236 10.3393 456.236 9.75C456.236 9.16067 456.041 8.671 455.651 8.281C455.261 7.891 454.78 7.696 454.208 7.696C453.636 7.696 453.155 7.891 452.765 8.281C452.375 8.671 452.18 9.16067 452.18 9.75C452.18 10.3393 452.375 10.829 452.765 11.219ZM465.416 11.674H466.287V14.742H464.909V13H460.45V14.742H459.072V11.674H459.865C460.264 11.1107 460.463 10.3263 460.463 9.321V6.5H465.416V11.674ZM461.412 11.674H464.038V7.787H461.841V9.321C461.841 10.2483 461.698 11.0327 461.412 11.674ZM471.282 13.169C470.302 13.169 469.483 12.8397 468.825 12.181C468.175 11.5223 467.85 10.712 467.85 9.75C467.85 8.77933 468.175 7.969 468.825 7.319C469.483 6.66033 470.302 6.331 471.282 6.331C471.914 6.331 472.491 6.48267 473.011 6.786C473.531 7.08933 473.921 7.49667 474.181 8.008L472.972 8.71C472.824 8.398 472.599 8.15533 472.296 7.982C472.001 7.8 471.659 7.709 471.269 7.709C470.697 7.709 470.216 7.904 469.826 8.294C469.444 8.684 469.254 9.16933 469.254 9.75C469.254 10.3307 469.444 10.816 469.826 11.206C470.216 11.596 470.697 11.791 471.269 11.791C471.65 11.791 471.992 11.7 472.296 11.518C472.608 11.336 472.842 11.0933 472.998 10.79L474.207 11.479C473.929 11.999 473.531 12.4107 473.011 12.714C472.491 13.0173 471.914 13.169 471.282 13.169ZM481.164 6.5V7.852H479.045V13H477.641V7.852H475.509V6.5H481.164ZM487.652 9.659C488.293 9.95367 488.614 10.452 488.614 11.154C488.614 11.7 488.428 12.1463 488.055 12.493C487.691 12.831 487.167 13 486.482 13H483.154V6.5H486.222C486.889 6.5 487.405 6.669 487.769 7.007C488.142 7.33633 488.328 7.76533 488.328 8.294C488.328 8.90933 488.103 9.36433 487.652 9.659ZM486.118 7.696H484.493V9.139H486.118C486.69 9.139 486.976 8.89633 486.976 8.411C486.976 7.93433 486.69 7.696 486.118 7.696ZM486.352 11.778C486.941 11.778 487.236 11.5223 487.236 11.011C487.236 10.7857 487.158 10.6123 487.002 10.491C486.846 10.361 486.629 10.296 486.352 10.296H484.493V11.778H486.352ZM491.901 10.348C492.005 10.842 492.243 11.2233 492.616 11.492C492.988 11.752 493.443 11.882 493.981 11.882C494.726 11.882 495.285 11.6133 495.658 11.076L496.815 11.752C496.173 12.6967 495.224 13.169 493.968 13.169C492.91 13.169 492.057 12.8483 491.407 12.207C490.757 11.557 490.432 10.738 490.432 9.75C490.432 8.77933 490.752 7.969 491.394 7.319C492.035 6.66033 492.858 6.331 493.864 6.331C494.817 6.331 495.597 6.66467 496.204 7.332C496.819 7.99933 497.127 8.80967 497.127 9.763C497.127 9.91033 497.109 10.1053 497.075 10.348H491.901ZM491.888 9.204H495.71C495.614 8.67533 495.393 8.27667 495.047 8.008C494.709 7.73933 494.31 7.605 493.851 7.605C493.331 7.605 492.897 7.748 492.551 8.034C492.204 8.32 491.983 8.71 491.888 9.204ZM503.783 6.5H505.187V13H503.783V10.413H500.806V13H499.402V6.5H500.806V9.087H503.783V6.5ZM512.237 6.5H513.641V13H512.237V10.413H509.26V13H507.856V6.5H509.26V9.087H512.237V6.5ZM519.378 13.169C518.425 13.169 517.614 12.8397 516.947 12.181C516.28 11.5223 515.946 10.712 515.946 9.75C515.946 8.788 516.28 7.97767 516.947 7.319C517.614 6.66033 518.425 6.331 519.378 6.331C520.34 6.331 521.15 6.66033 521.809 7.319C522.476 7.97767 522.81 8.788 522.81 9.75C522.81 10.712 522.476 11.5223 521.809 12.181C521.15 12.8397 520.34 13.169 519.378 13.169ZM517.935 11.219C518.325 11.609 518.806 11.804 519.378 11.804C519.95 11.804 520.431 11.609 520.821 11.219C521.211 10.829 521.406 10.3393 521.406 9.75C521.406 9.16067 521.211 8.671 520.821 8.281C520.431 7.891 519.95 7.696 519.378 7.696C518.806 7.696 518.325 7.891 517.935 8.281C517.545 8.671 517.35 9.16067 517.35 9.75C517.35 10.3393 517.545 10.829 517.935 11.219ZM281.91 27.724V26.372H286.72V27.724H281.91ZM292.554 31.169C291.575 31.169 290.756 30.8397 290.097 30.181C289.447 29.5223 289.122 28.712 289.122 27.75C289.122 26.7793 289.447 25.969 290.097 25.319C290.756 24.6603 291.575 24.331 292.554 24.331C293.187 24.331 293.763 24.4827 294.283 24.786C294.803 25.0893 295.193 25.4967 295.453 26.008L294.244 26.71C294.097 26.398 293.871 26.1553 293.568 25.982C293.273 25.8 292.931 25.709 292.541 25.709C291.969 25.709 291.488 25.904 291.098 26.294C290.717 26.684 290.526 27.1693 290.526 27.75C290.526 28.3307 290.717 28.816 291.098 29.206C291.488 29.596 291.969 29.791 292.541 29.791C292.922 29.791 293.265 29.7 293.568 29.518C293.88 29.336 294.114 29.0933 294.27 28.79L295.479 29.479C295.202 29.999 294.803 30.4107 294.283 30.714C293.763 31.0173 293.187 31.169 292.554 31.169ZM302.436 24.5V25.852H300.317V31H298.913V25.852H296.781V24.5H302.436ZM308.105 24.331C308.998 24.331 309.761 24.6647 310.393 25.332C311.026 25.9907 311.342 26.7967 311.342 27.75C311.342 28.712 311.026 29.5223 310.393 30.181C309.761 30.8397 308.998 31.169 308.105 31.169C307.117 31.169 306.359 30.805 305.83 30.077V33.6H304.426V24.5H305.83V25.436C306.359 24.6993 307.117 24.331 308.105 24.331ZM306.415 29.245C306.805 29.635 307.295 29.83 307.884 29.83C308.474 29.83 308.963 29.635 309.353 29.245C309.743 28.8463 309.938 28.348 309.938 27.75C309.938 27.152 309.743 26.658 309.353 26.268C308.963 25.8693 308.474 25.67 307.884 25.67C307.295 25.67 306.805 25.8693 306.415 26.268C306.025 26.658 305.83 27.152 305.83 27.75C305.83 28.348 306.025 28.8463 306.415 29.245ZM316.723 31.169C315.769 31.169 314.959 30.8397 314.292 30.181C313.624 29.5223 313.291 28.712 313.291 27.75C313.291 26.788 313.624 25.9777 314.292 25.319C314.959 24.6603 315.769 24.331 316.723 24.331C317.685 24.331 318.495 24.6603 319.154 25.319C319.821 25.9777 320.155 26.788 320.155 27.75C320.155 28.712 319.821 29.5223 319.154 30.181C318.495 30.8397 317.685 31.169 316.723 31.169ZM315.28 29.219C315.67 29.609 316.151 29.804 316.723 29.804C317.295 29.804 317.776 29.609 318.166 29.219C318.556 28.829 318.751 28.3393 318.751 27.75C318.751 27.1607 318.556 26.671 318.166 26.281C317.776 25.891 317.295 25.696 316.723 25.696C316.151 25.696 315.67 25.891 315.28 26.281C314.89 26.671 314.695 27.1607 314.695 27.75C314.695 28.3393 314.89 28.829 315.28 29.219ZM327.17 24.5H328.249V31H326.871V26.866L323.543 31H322.464V24.5H323.842V28.621L327.17 24.5ZM335.884 24.5V25.852H333.765V31H332.361V25.852H330.229V24.5H335.884ZM338.725 28.348C338.829 28.842 339.068 29.2233 339.44 29.492C339.813 29.752 340.268 29.882 340.805 29.882C341.551 29.882 342.11 29.6133 342.482 29.076L343.639 29.752C342.998 30.6967 342.049 31.169 340.792 31.169C339.735 31.169 338.881 30.8483 338.231 30.207C337.581 29.557 337.256 28.738 337.256 27.75C337.256 26.7793 337.577 25.969 338.218 25.319C338.86 24.6603 339.683 24.331 340.688 24.331C341.642 24.331 342.422 24.6647 343.028 25.332C343.644 25.9993 343.951 26.8097 343.951 27.763C343.951 27.9103 343.934 28.1053 343.899 28.348H338.725ZM338.712 27.204H342.534C342.439 26.6753 342.218 26.2767 341.871 26.008C341.533 25.7393 341.135 25.605 340.675 25.605C340.155 25.605 339.722 25.748 339.375 26.034C339.029 26.32 338.808 26.71 338.712 27.204ZM351.459 24.5V31H350.055V25.852H347.884V28.27C347.884 29.3013 347.659 30.0337 347.208 30.467C346.757 30.9003 346.116 31.078 345.284 31V29.687C345.683 29.7563 345.982 29.674 346.181 29.44C346.38 29.206 346.48 28.7943 346.48 28.205V24.5H351.459ZM356.969 26.71C357.662 26.71 358.23 26.9093 358.672 27.308C359.114 27.698 359.335 28.2137 359.335 28.855C359.335 29.4877 359.114 30.0033 358.672 30.402C358.23 30.8007 357.662 31 356.969 31H354.135V24.5H355.539V26.71H356.969ZM356.982 29.739C357.259 29.739 357.489 29.6567 357.671 29.492C357.862 29.3273 357.957 29.115 357.957 28.855C357.957 28.5863 357.862 28.374 357.671 28.218C357.489 28.0533 357.259 27.971 356.982 27.971H355.539V29.739H356.982ZM365.904 24.5H367.308V31H365.904V28.413H362.927V31H361.523V24.5H362.927V27.087H365.904V24.5ZM375.125 24.5H376.529V31H375.125V30.064C374.596 30.8007 373.838 31.169 372.85 31.169C371.957 31.169 371.194 30.8397 370.562 30.181C369.929 29.5137 369.613 28.7033 369.613 27.75C369.613 26.788 369.929 25.9777 370.562 25.319C371.194 24.6603 371.957 24.331 372.85 24.331C373.838 24.331 374.596 24.695 375.125 25.423V24.5ZM371.602 29.245C371.992 29.635 372.481 29.83 373.071 29.83C373.66 29.83 374.15 29.635 374.54 29.245C374.93 28.8463 375.125 28.348 375.125 27.75C375.125 27.152 374.93 26.658 374.54 26.268C374.15 25.8693 373.66 25.67 373.071 25.67C372.481 25.67 371.992 25.8693 371.602 26.268C371.212 26.658 371.017 27.152 371.017 27.75C371.017 28.348 371.212 28.8463 371.602 29.245ZM384.236 24.5V31H382.858V28.816H382.078L380.427 31H378.776L380.531 28.686C380.081 28.5387 379.717 28.2787 379.439 27.906C379.171 27.5333 379.036 27.1173 379.036 26.658C379.036 26.06 379.249 25.553 379.673 25.137C380.107 24.7123 380.661 24.5 381.337 24.5H384.236ZM381.415 27.607H382.858V25.774H381.415C381.129 25.774 380.891 25.8563 380.7 26.021C380.51 26.1857 380.414 26.411 380.414 26.697C380.414 26.9743 380.51 27.1953 380.7 27.36C380.891 27.5247 381.129 27.607 381.415 27.607ZM396.946 31H395.269L392.604 27.997V31H391.2V24.5H392.604V27.373L395.126 24.5H396.842L393.982 27.685L396.946 31ZM401.478 31.169C400.525 31.169 399.715 30.8397 399.047 30.181C398.38 29.5223 398.046 28.712 398.046 27.75C398.046 26.788 398.38 25.9777 399.047 25.319C399.715 24.6603 400.525 24.331 401.478 24.331C402.44 24.331 403.251 24.6603 403.909 25.319C404.577 25.9777 404.91 26.788 404.91 27.75C404.91 28.712 404.577 29.5223 403.909 30.181C403.251 30.8397 402.44 31.169 401.478 31.169ZM400.035 29.219C400.425 29.609 400.906 29.804 401.478 29.804C402.05 29.804 402.531 29.609 402.921 29.219C403.311 28.829 403.506 28.3393 403.506 27.75C403.506 27.1607 403.311 26.671 402.921 26.281C402.531 25.891 402.05 25.696 401.478 25.696C400.906 25.696 400.425 25.891 400.035 26.281C399.645 26.671 399.45 27.1607 399.45 27.75C399.45 28.3393 399.645 28.829 400.035 29.219ZM413.85 24.5V31H412.485V26.723L410.613 29.7H410.444L408.585 26.736V31H407.22V24.5H408.65L410.535 27.503L412.42 24.5H413.85ZM422.297 24.5V31H420.893V25.826H417.916V31H416.512V24.5H422.297ZM430.114 24.5H431.518V31H430.114V30.064C429.585 30.8007 428.827 31.169 427.839 31.169C426.946 31.169 426.183 30.8397 425.551 30.181C424.918 29.5137 424.602 28.7033 424.602 27.75C424.602 26.788 424.918 25.9777 425.551 25.319C426.183 24.6603 426.946 24.331 427.839 24.331C428.827 24.331 429.585 24.695 430.114 25.423V24.5ZM426.591 29.245C426.981 29.635 427.47 29.83 428.06 29.83C428.649 29.83 429.139 29.635 429.529 29.245C429.919 28.8463 430.114 28.348 430.114 27.75C430.114 27.152 429.919 26.658 429.529 26.268C429.139 25.8693 428.649 25.67 428.06 25.67C427.47 25.67 426.981 25.8693 426.591 26.268C426.201 26.658 426.006 27.152 426.006 27.75C426.006 28.348 426.201 28.8463 426.591 29.245ZM438.575 24.5H439.979V31H438.575V28.413H435.598V31H434.194V24.5H435.598V27.087H438.575V24.5ZM447.354 24.5H448.433V31H447.055V26.866L443.727 31H442.648V24.5H444.026V28.621L447.354 24.5ZM456.133 24.5V31H454.755V28.816H453.975L452.324 31H450.673L452.428 28.686C451.978 28.5387 451.614 28.2787 451.336 27.906C451.068 27.5333 450.933 27.1173 450.933 26.658C450.933 26.06 451.146 25.553 451.57 25.137C452.004 24.7123 452.558 24.5 453.234 24.5H456.133ZM453.312 27.607H454.755V25.774H453.312C453.026 25.774 452.788 25.8563 452.597 26.021C452.407 26.1857 452.311 26.411 452.311 26.697C452.311 26.9743 452.407 27.1953 452.597 27.36C452.788 27.5247 453.026 27.607 453.312 27.607Z" fill="#2B2A28"/>
<path d="M142.806 34.0967C141.892 34.0967 141.135 33.7958 140.533 33.1941C139.931 32.5812 139.641 31.8345 139.641 30.9319C139.641 30.0293 139.931 29.2715 140.533 28.6697C141.135 28.068 141.892 27.7671 142.806 27.7671C143.352 27.7671 143.865 27.8897 144.333 28.1571C144.801 28.4134 145.169 28.7589 145.436 29.2046L144.088 29.9735C143.976 29.7618 143.798 29.5947 143.575 29.4721C143.341 29.3384 143.085 29.2826 142.806 29.2826C142.316 29.2826 141.926 29.4275 141.625 29.7395C141.335 30.0404 141.179 30.4416 141.179 30.9319C141.179 31.4222 141.335 31.8234 141.625 32.1243C141.926 32.4252 142.316 32.5812 142.806 32.5812C143.085 32.5812 143.341 32.5143 143.575 32.3917C143.798 32.2691 143.976 32.0908 144.088 31.8791L145.436 32.6592C145.169 33.1049 144.801 33.4504 144.333 33.7067C143.865 33.963 143.363 34.0967 142.806 34.0967ZM162.675 33.1829C162.062 33.7847 161.305 34.0967 160.413 34.0967C159.522 34.0967 158.775 33.7847 158.162 33.1829C157.538 32.57 157.237 31.8234 157.237 30.9319C157.237 30.0404 157.538 29.2938 158.162 28.6809C158.775 28.068 159.522 27.7671 160.413 27.7671C161.305 27.7671 162.062 28.068 162.675 28.6809C163.288 29.2938 163.6 30.0404 163.6 30.9319C163.6 31.8234 163.288 32.57 162.675 33.1829ZM159.243 32.1131C159.555 32.4252 159.945 32.5812 160.413 32.5812C160.881 32.5812 161.271 32.4252 161.583 32.1131C161.895 31.8011 162.051 31.4111 162.051 30.9319C162.051 30.4527 161.895 30.0515 161.583 29.7507C161.271 29.4386 160.881 29.2826 160.413 29.2826C159.945 29.2826 159.555 29.4386 159.243 29.7507C158.931 30.0515 158.775 30.4527 158.775 30.9319C158.775 31.4111 158.931 31.8011 159.243 32.1131ZM182.132 27.8897V33.963H180.594V30.6979L179.112 33.1272H178.956L177.496 30.709V33.963H175.936V27.8897H177.496L179.034 30.4862L180.594 27.8897H182.132ZM197.076 27.8897C197.689 27.8897 198.201 28.0903 198.625 28.4914C199.037 28.8926 199.249 29.4052 199.249 30.0181C199.249 30.6422 199.037 31.1436 198.625 31.5448C198.201 31.946 197.689 32.1466 197.076 32.1466H196.273V33.963H194.713V27.8897H197.076ZM197.076 30.6645C197.254 30.6645 197.399 30.6087 197.51 30.4862C197.633 30.3636 197.689 30.2076 197.689 30.0181C197.689 29.8287 197.633 29.6727 197.51 29.5501C197.399 29.4386 197.254 29.3718 197.076 29.3718H196.273V30.6645H197.076ZM214.694 33.963L214.393 33.0938H212.331L212.075 33.963H210.392L212.32 27.8897H214.282L216.287 33.963H214.694ZM212.733 31.7565H213.958L213.334 29.6838L212.733 31.7565ZM231.699 27.8897H233.237V33.963H232.045L229.905 30.9096V33.963H228.356V27.8897H229.56L231.699 30.943V27.8897ZM251 27.8897L248.95 31.634V33.963H247.401V31.6451L245.35 27.8897H247.089L248.169 30.1407L249.25 27.8897H251Z" fill="#2B2A28"/>
<path fill-rule="evenodd" clip-rule="evenodd" d="M174.042 1.06686L190.824 19.8439H184.461L167.679 1.06686H174.042Z" fill="#CB8734"/>
<path fill-rule="evenodd" clip-rule="evenodd" d="M192.752 1.06686L209.534 19.8439H203.183L186.4 1.06686H192.752Z" fill="#CB8734"/>
<path fill-rule="evenodd" clip-rule="evenodd" d="M211.518 1.06686L228.3 19.8439H221.937L205.155 1.06686H211.518Z" fill="#CB8734"/>
<path fill-rule="evenodd" clip-rule="evenodd" d="M240.636 13.4252L246.364 19.8439H241.249L235.51 13.4252L231.376 8.86743H244.225C245.138 8.86743 245.896 8.1208 245.896 7.20702C245.896 6.30439 245.138 5.54662 244.225 5.54662H228.768L224.211 1H244.225C247.646 1 250.443 3.79706 250.443 7.20702C250.443 10.6281 247.646 13.4252 244.225 13.4252H240.636ZM0 1.06686H12.8932H17.4398H30.3331V5.61348H17.4398V19.8439H12.8932V5.61348H0V1.06686ZM53.4785 1.06686H68.2104C73.1025 1.06686 77.1031 5.06744 77.1031 9.94837V10.9513C77.1031 15.8434 73.1025 19.8439 68.2104 19.8439H53.4785C48.5864 19.8439 44.5858 15.8434 44.5858 10.9513V9.94837C44.5858 5.06744 48.5864 1.06686 53.4785 1.06686ZM53.4785 5.61348H68.2104C70.5952 5.61348 72.5453 7.56362 72.5453 9.94837V10.9513C72.5453 13.336 70.5952 15.2862 68.2104 15.2862H53.4785C51.0937 15.2862 49.1436 13.336 49.1436 10.9513V9.94837C49.1436 7.56362 51.0937 5.61348 53.4785 5.61348ZM98.7218 1.06686V11.1519L98.8109 11.0516L114.423 1.06686H122.569L110.021 8.90086L125.567 19.8439H117.332L105.609 11.6533L98.7218 15.9548V19.8439H94.164V15.9548V1.06686H98.7218ZM154.607 1.10029L171.769 19.8439H150.44L154.986 15.2862H161.427L154.652 7.87564L143.72 19.8439H137.836L154.607 1.10029Z" fill="#2B2A28"/>
</svg>
